<svg width="59" height="59" viewBox="0 0 59 59" fill="none" xmlns="http://www.w3.org/2000/svg">
<path d="M57.2952 0.28799L53.0756 4.50759V0.982902C53.0755 0.585421 52.836 0.227115 52.4688 0.0750171C52.1015 -0.0770811 51.6789 0.00697083 51.3977 0.28799L45.5003 6.1854C45.316 6.36969 45.2124 6.61966 45.2123 6.88032V12.3708L42.9045 14.6787C38.9331 10.9889 33.8879 8.66255 28.503 8.03818V5.89741C30.1315 5.89741 31.4517 4.57723 31.4517 2.94871C31.4517 1.32018 30.1315 0 28.503 0H22.6056C20.9771 0 19.6569 1.32018 19.6569 2.94871C19.6569 4.57723 20.9771 5.89741 22.6056 5.89741V8.03818C17.9032 8.58233 13.446 10.428 9.73547 13.3675L8.04586 11.6769C6.86019 10.5612 5.01095 10.5612 3.82528 11.6769C3.26342 12.2376 2.94767 12.9988 2.94767 13.7926C2.94767 14.5864 3.26342 15.3476 3.82528 15.9083L5.50998 17.594C-2.92785 28.2652 -1.52654 43.6762 8.69765 52.6506C18.9218 61.625 34.3845 61.0164 43.8717 51.2663C53.3589 41.5161 53.5447 26.0426 44.2943 16.0675L46.6022 13.7606H52.0927C52.3533 13.7606 52.6033 13.657 52.7876 13.4726L58.685 7.57523C58.966 7.29412 59.0501 6.87143 58.898 6.5042C58.7459 6.13697 58.3876 5.8975 57.9901 5.89741H54.4654L58.685 1.67781C59.0575 1.29214 59.0522 0.679102 58.673 0.299964C58.2939 -0.0791751 57.6808 -0.0845023 57.2952 0.28799V0.28799ZM47.1781 7.28724L51.1098 3.35563V6.47339L47.1781 10.405V7.28724ZM21.6227 2.94871C21.6227 2.40587 22.0628 1.9658 22.6056 1.9658H28.503C29.0458 1.9658 29.4859 2.40587 29.4859 2.94871C29.4859 3.49155 29.0458 3.93161 28.503 3.93161H22.6056C22.0628 3.93161 21.6227 3.49155 21.6227 2.94871ZM24.5714 5.89741H26.5372V7.88779C26.2109 7.876 25.8836 7.86322 25.5543 7.86322C25.225 7.86322 24.8977 7.876 24.5714 7.88779V5.89741ZM5.21609 14.5204C5.02128 14.3273 4.91227 14.064 4.91357 13.7897C4.91486 13.5153 5.02635 13.2531 5.22297 13.0618C5.41178 12.8738 5.66922 12.7712 5.93557 12.7777C6.20564 12.775 6.46541 12.8813 6.65604 13.0726L8.23458 14.6452C7.7333 15.1085 7.25135 15.5905 6.78873 16.0911L5.21609 14.5204ZM49.144 33.4187C49.1597 44.5994 41.3349 54.26 30.3947 56.5668C19.4545 58.8735 8.39536 53.1946 3.8955 42.9594C-0.604357 32.7241 2.68756 20.7359 11.7834 14.2339C20.8792 7.732 33.2876 8.49721 41.5156 16.0675L40.1258 17.4573C31.4368 9.52358 18.0022 9.98126 9.87326 18.488C1.7443 26.9946 1.89689 40.4362 10.2169 48.7561C18.5368 57.0761 31.9783 57.2287 40.485 49.0997C48.9917 40.9708 49.4494 27.5362 41.5156 18.8472L42.9055 17.4573C46.92 21.8028 49.1478 27.5026 49.144 33.4187V33.4187ZM28.503 33.4187C28.503 35.0472 27.1828 36.3674 25.5543 36.3674C23.9258 36.3674 22.6056 35.0472 22.6056 33.4187C22.6056 31.7902 23.9258 30.47 25.5543 30.47C25.9921 30.4721 26.4238 30.5729 26.8173 30.7648L24.8594 32.7228C24.6039 32.9696 24.5014 33.335 24.5914 33.6787C24.6813 34.0223 24.9497 34.2907 25.2933 34.3806C25.637 34.4706 26.0024 34.3681 26.2492 34.1126L28.2081 32.1557C28.4005 32.549 28.5013 32.9808 28.503 33.4187V33.4187ZM28.2602 29.3229C26.1496 27.9259 23.3239 28.3545 21.7224 30.3146C20.121 32.2747 20.2643 35.1291 22.0541 36.9189C23.8439 38.7086 26.6983 38.852 28.6584 37.2506C30.6184 35.6491 31.0471 32.8234 29.6501 30.7127L32.4592 27.9036C35.3981 31.5802 34.9531 36.9123 31.4452 40.0507C27.9374 43.1891 22.5889 43.0406 19.2606 39.7124C15.9324 36.3841 15.7839 31.0356 18.9223 27.5277C22.0607 24.0199 27.3928 23.5748 31.0694 26.5138L28.2602 29.3229ZM32.468 25.1151C28.0198 21.4099 21.4441 21.8588 17.5406 26.1342C13.6372 30.4095 13.7869 36.9988 17.8805 41.0924C21.9741 45.186 28.5635 45.3358 32.8388 41.4323C37.1142 37.5289 37.5631 30.9532 33.8579 26.5049L36.6365 23.7263C41.8916 29.731 41.438 38.8212 35.6113 44.2729C29.7846 49.7246 20.6843 49.5734 15.0419 43.9311C9.39959 38.2887 9.24834 29.1884 14.7001 23.3617C20.1518 17.535 29.242 17.0814 35.2467 22.3365L32.468 25.1151ZM36.6365 20.9466C29.8578 14.9197 19.5156 15.3748 13.2925 21.9739C7.06947 28.573 7.22122 38.9241 13.6351 45.3379C20.0489 51.7518 30.4 51.9035 36.9991 45.6804C43.5982 39.4574 44.0533 29.1151 38.0263 22.3365L40.1101 20.2527C47.2816 28.2038 46.8039 40.4233 39.0336 47.7902C31.2633 55.1572 19.0358 54.9835 11.4778 47.3988C3.91992 39.8141 3.78954 27.586 11.184 19.8418C18.5785 12.0976 30.7996 11.6632 38.7252 18.8629L36.6365 20.9466ZM55.6173 7.86322L51.6857 11.7948H48.568L52.4996 7.86322H55.6173Z" fill="url(#paint0_linear_58_9513)"/>
<defs>
<linearGradient id="paint0_linear_58_9513" x1="62.8287" y1="65.1269" x2="-35.0302" y2="50.8155" gradientUnits="userSpaceOnUse">
<stop stop-color="#0B3F37"/>
<stop offset="0.969562" stop-color="#CB8D62"/>
</linearGradient>
</defs>
</svg>
