<svg width="59" height="70" viewBox="0 0 59 70" fill="none" xmlns="http://www.w3.org/2000/svg">
<path d="M24.22 4.5306L24.2203 4.53055L26.9211 4.14272L28.1365 1.7204C28.1366 1.72024 28.1367 1.72007 28.1367 1.71991C28.3337 1.32378 28.7401 1.07463 29.1831 1.07569M24.22 4.5306L26.7541 12.2748L29.1814 11.0173L31.6101 12.275L31.6102 12.2751C32.0044 12.4788 32.4809 12.443 32.84 12.1825C33.1991 11.9218 33.379 11.4807 33.3024 11.0442C33.3024 11.044 33.3024 11.0438 33.3023 11.0437L32.8416 8.39432L34.7897 6.52294C34.7899 6.52275 34.7901 6.52256 34.7903 6.52237C35.1147 6.21372 35.2324 5.74708 35.0918 5.3224C34.9554 4.89878 34.5872 4.59138 34.1457 4.52946C34.1455 4.52943 34.1454 4.52941 34.1452 4.52939L31.4398 4.14168L30.2296 1.72222C30.2295 1.72203 30.2294 1.72185 30.2293 1.72167C30.0326 1.32512 29.6265 1.0753 29.1831 1.07569M24.22 4.5306C23.7791 4.59452 23.4117 4.90173 23.2741 5.32468M24.22 4.5306L23.2741 5.32468M29.1831 1.07569C29.1833 1.07569 29.1835 1.07569 29.1837 1.07569L29.183 1.32569L29.1826 1.07569C29.1828 1.07569 29.183 1.07569 29.1831 1.07569ZM23.2741 5.32468C23.1365 5.74785 23.2535 6.21143 23.5747 6.51994M23.2741 5.32468L23.5747 6.51994M23.5747 6.51994C23.5747 6.51995 23.5747 6.51995 23.5747 6.51995M23.5747 6.51994L23.5747 6.51995M23.5747 6.51995L25.5243 8.39277M23.5747 6.51995L25.5243 8.39277M25.5243 8.39277L25.0638 11.0402C25.0638 11.0405 25.0637 11.0408 25.0637 11.0412C24.9846 11.478 25.1632 11.9207 25.5225 12.1824C25.8818 12.444 26.3593 12.4798 26.7538 12.2749L25.5243 8.39277ZM30.8181 5.59949L33.1783 5.93914L31.4796 7.57188L31.6526 7.75209L31.4795 7.57201L31.4796 7.57193C31.2962 7.74794 31.212 8.00316 31.2557 8.25366L31.6585 10.5706L29.5398 9.47254L29.5397 9.47253C29.3168 9.35701 29.0512 9.35701 28.8282 9.47253L26.7089 10.5702L27.1118 8.25387C27.1118 8.25379 27.1118 8.2537 27.1118 8.25362C27.1118 8.2536 27.1118 8.25359 27.1118 8.25357C27.1556 8.00327 27.0716 7.74818 26.8886 7.57209L26.8883 7.57186L25.1865 5.9389L27.5389 5.59951L27.5035 5.35202L27.5392 5.59946L27.539 5.59948C27.7886 5.56375 28.0056 5.40851 28.1186 5.18287L29.1805 3.06435L30.2384 5.18208C30.2384 5.18211 30.2384 5.18213 30.2384 5.18215C30.3512 5.40807 30.5682 5.5636 30.818 5.59947C30.818 5.59948 30.818 5.59948 30.8181 5.59949ZM29.0409 2.78492L29.1809 2.50569L29.3205 2.78512L29.0409 2.78492Z" fill="url(#paint0_linear_59_9547)" stroke="url(#paint1_linear_59_9547)" stroke-width="0.5"/>
<path d="M25.0229 34.1342V34.3842H24.0694C23.7371 34.3842 23.4677 34.1066 23.4677 33.7641V29.6836C23.4652 27.7491 24.621 26.0136 26.3734 25.3203M25.0229 34.1342H25.2729V30.8681C25.2729 30.5256 25.5423 30.2479 25.8746 30.2479C26.2069 30.2479 26.4763 30.5256 26.4763 30.8681V34.1342H26.7263M25.0229 34.1342H24.0694C23.8822 34.1342 23.7177 33.9757 23.7177 33.7641L23.7177 29.6836L23.7177 29.6833C23.7154 27.8942 24.7571 26.2899 26.3413 25.6042M25.0229 34.1342V30.8681C25.0229 30.3947 25.3971 29.9979 25.8746 29.9979C26.352 29.9979 26.7263 30.3947 26.7263 30.8681V34.1342M26.7263 34.1342V34.3842H32.2436V34.1342M26.7263 34.1342H32.2436M32.2436 34.1342H32.4936V30.8681C32.4936 30.5256 32.763 30.2479 33.0954 30.2479C33.4277 30.2479 33.6971 30.5256 33.6971 30.8681V34.1342H33.9471M32.2436 34.1342V30.8681C32.2436 30.3947 32.6179 29.9979 33.0954 29.9979C33.5728 29.9979 33.9471 30.3947 33.9471 30.8681V34.1342M33.9471 34.1342V34.3842H34.9006C35.2329 34.3842 35.5023 34.1066 35.5023 33.7641V29.6836C35.5048 27.7491 34.349 26.0136 32.5965 25.3203M33.9471 34.1342H34.9006C35.0878 34.1342 35.2523 33.9757 35.2523 33.7641V29.6836V29.6833C35.2546 27.8942 34.2128 26.2899 32.6287 25.6042M32.5965 25.3203C30.7324 26.6814 28.2376 26.6814 26.3734 25.3203M32.5965 25.3203L32.744 25.5222C32.7058 25.5501 32.6674 25.5774 32.6287 25.6042M32.5965 25.3203L32.5046 25.5528C32.5463 25.5693 32.5877 25.5865 32.6287 25.6042M26.3734 25.3203L26.4654 25.5528C26.4237 25.5693 26.3823 25.5865 26.3413 25.6042M26.3734 25.3203L26.226 25.5222C26.2642 25.5501 26.3026 25.5774 26.3413 25.6042M26.3413 25.6042C28.2413 26.9201 30.7287 26.9201 32.6287 25.6042M33.9558 24.3255C35.7307 21.979 35.5083 18.6052 33.3945 16.5286C31.2052 14.3778 27.76 14.3778 25.5707 16.5286C23.4568 18.6053 23.2344 21.9792 25.0095 24.3258C23.1545 25.4267 22.0071 27.4695 22.0142 29.684V33.7641C22.0142 34.9225 22.9273 35.8745 24.0694 35.8745H34.9006C36.0427 35.8745 36.9558 34.9225 36.9558 33.7641L36.9558 29.6843C36.9558 29.6842 36.9558 29.6841 36.9558 29.684V29.6836H36.7058L33.9558 24.3255ZM29.4851 16.6689C31.6662 16.669 33.4471 18.4934 33.4471 20.7599C33.4471 23.0264 31.6662 24.8508 29.485 24.8508C27.3039 24.8508 25.523 23.0265 25.5229 20.7601C25.5254 18.4946 27.3048 16.6716 29.4851 16.6689Z" fill="url(#paint2_linear_59_9547)" stroke="url(#paint3_linear_59_9547)" stroke-width="0.5"/>
<path d="M57.2441 24.3775C56.5206 24.098 55.713 24.1363 55.0193 24.4828C54.3521 24.8128 53.8509 25.4046 53.6354 26.1171L52.9934 28.2713C52.5574 29.861 51.6387 31.2761 50.3646 32.3212C49.7473 32.8131 49.2056 33.3933 48.7575 34.0428C48.0944 34.997 47.2283 35.7914 46.221 36.3693L45.7391 36.6448C45.1929 36.2194 44.5199 35.9903 43.8275 35.9939C42.8183 35.9854 41.8708 36.4796 41.2999 37.3123L38.0458 42.0162C36.6047 42.4181 31.613 44.1064 29.485 48.4228C27.3574 44.1064 22.3657 42.4181 20.9247 42.0162L17.6813 37.324C17.1104 36.4841 16.1579 35.9849 15.1425 35.9939C14.4505 35.9903 13.7775 36.2194 13.2313 36.6448L12.7584 36.3752C11.7435 35.795 10.8702 34.9956 10.203 34.0351C9.75578 33.3888 9.2159 32.8113 8.60088 32.3221C7.3263 31.2765 6.4076 29.8605 5.97209 28.2704L5.33008 26.1171C5.11547 25.4055 4.61653 24.8141 3.95112 24.4828C3.25737 24.1354 2.44889 24.0971 1.725 24.3775C0.678519 24.7871 -0.00758507 25.7998 6.32963e-05 26.9241V30.4641C0.00186291 31.6722 0.293851 32.8622 0.852182 33.9339L2.65405 37.4225C3.04186 38.1737 3.54981 38.857 4.15763 39.4448L9.42555 44.5304C13.1202 48.4957 18.3233 54.8721 18.3233 56.6419C18.1366 57.9116 17.6871 59.1286 17.0033 60.2147C16.5241 61.1158 16.5552 62.2032 17.0856 63.075C17.63 63.973 18.6072 64.5176 19.6568 64.5077H25.5537C26.6857 64.5203 27.7272 63.8897 28.241 62.8806C28.7552 61.8116 29.1714 60.699 29.485 59.5553C29.799 60.699 30.2152 61.8116 30.7294 62.8806C31.2432 63.8897 32.2843 64.5203 33.4162 64.5077H39.3136C40.3632 64.5176 41.3409 63.9734 41.8857 63.075C42.4157 62.2032 42.4472 61.1158 41.968 60.2147C41.2842 59.1286 40.8343 57.9116 40.6471 56.6419C40.6471 54.8721 45.8502 48.4957 49.5093 44.5677L54.8168 39.4448C55.4229 38.8565 55.9294 38.1733 56.3164 37.4225L58.1119 33.9429C58.673 32.8703 58.9676 31.6785 58.9699 30.4677V26.9282C58.9798 25.8021 58.2928 24.7871 57.2441 24.3775V24.3775ZM26.4814 61.9966C26.3006 62.3391 25.9411 62.5502 25.5537 62.5412H19.6568C19.2956 62.5511 18.9563 62.3671 18.7674 62.0583C18.5933 61.7752 18.5843 61.4201 18.744 61.1284C19.5943 59.7705 20.1225 58.2357 20.2889 56.6419C20.2889 53.466 12.4368 44.8783 10.827 43.1517L5.51994 38.0292C5.06463 37.5909 4.68446 37.0809 4.39428 36.5196L2.59691 33.0301C2.18345 32.2393 1.96704 31.3602 1.96569 30.4677V26.9282C1.95805 26.6235 2.13576 26.3449 2.41515 26.2233C2.51323 26.1842 2.61806 26.1635 2.72378 26.1612C2.84571 26.1608 2.96628 26.1891 3.07561 26.244C3.25512 26.3305 3.39099 26.4871 3.45083 26.6775L4.09194 28.8289C4.64217 30.8089 5.79393 32.5687 7.38794 33.865C7.84999 34.2332 8.2549 34.6671 8.59008 35.1532C9.42106 36.3518 10.5085 37.3505 11.7736 38.0761L12.1736 38.3052C12.1164 38.5266 12.0863 38.7543 12.0831 38.983C12.0872 39.3125 12.1439 39.6397 12.2514 39.9511C12.4881 40.6159 12.713 41.3338 12.8997 42.0211C13.3532 43.7189 14.2584 45.2613 15.5191 46.4851C15.5443 46.5099 15.5712 46.5333 15.5996 46.5549L20.7397 50.5368C21.1694 50.8695 21.7867 50.7907 22.1191 50.3613C22.4516 49.9319 22.3733 49.3139 21.9437 48.9813L16.8467 45.0336C15.8605 44.0623 15.1528 42.8439 14.7979 41.5058C14.6013 40.7672 14.3556 40.0024 14.11 39.3161C14.0717 39.2089 14.0506 39.0964 14.047 38.983C14.047 38.7962 14.1041 38.6139 14.2112 38.4609C14.2188 38.4487 14.2197 38.4361 14.2278 38.4244C14.2355 38.4123 14.2562 38.3898 14.2679 38.3704C14.4996 38.1157 14.8307 37.9757 15.1744 37.9878C15.5182 37.9995 15.8394 38.1616 16.0526 38.4312L19.5133 43.4357C19.6555 43.641 19.8701 43.7846 20.1139 43.8381C20.459 43.9128 28.5024 45.7447 28.5024 52.709C28.5069 55.9141 27.8185 59.0823 26.4846 61.9966H26.4814ZM57.0043 30.4677C57.0029 31.362 56.7856 32.2429 56.3704 33.035L54.573 36.5196C54.2823 37.0809 53.9017 37.5909 53.4464 38.0292L48.107 43.1891C46.5341 44.8783 38.6815 53.466 38.6815 56.6419C38.8475 58.2357 39.3761 59.7705 40.2264 61.1284C40.3862 61.4201 40.3772 61.7752 40.203 62.0583C40.0141 62.3671 39.6749 62.5511 39.3136 62.5412H33.4162C33.028 62.5511 32.6676 62.34 32.4858 61.9966C31.1519 59.0823 30.4635 55.9141 30.468 52.709C30.468 45.7447 38.5114 43.9128 38.8547 43.8381C39.0981 43.7846 39.3127 43.641 39.4549 43.4357L42.9232 38.4213C43.1288 38.1413 43.4523 37.9716 43.7996 37.9617C44.1469 37.9518 44.4794 38.1031 44.7003 38.3713C44.712 38.3907 44.7286 38.4064 44.7408 38.4253C44.7525 38.4438 44.7493 38.4496 44.7574 38.4618C44.8641 38.6148 44.9212 38.7971 44.9216 38.9839C44.9185 39.0892 44.9 39.1936 44.8663 39.2936C44.6148 40.0034 44.375 40.7685 44.1717 41.5107C43.8162 42.8475 43.109 44.0645 42.1232 45.0345L37.0263 48.9822C36.5975 49.3153 36.5192 49.9337 36.8526 50.3627C37.1855 50.792 37.8033 50.8699 38.2325 50.5368L43.3726 46.5549C43.401 46.5333 43.428 46.5099 43.4532 46.4851C44.7129 45.2627 45.6181 43.7211 46.0716 42.0247C46.2592 41.3365 46.4842 40.6159 46.728 39.9286C46.8315 39.6239 46.8859 39.3048 46.8891 38.983C46.8859 38.7543 46.8558 38.5266 46.7986 38.3052L47.2076 38.0702C48.4669 37.3474 49.5494 36.3531 50.3772 35.1599C50.7142 34.6711 51.1209 34.2345 51.5852 33.8641C53.1783 32.5687 54.3296 30.8098 54.8794 28.8307L55.5214 26.6775C55.5812 26.4871 55.7171 26.3305 55.8966 26.244C56.1031 26.1428 56.3429 26.1338 56.5562 26.2193C56.836 26.3408 57.0137 26.6194 57.0065 26.9241L57.0043 30.4677Z" fill="url(#paint4_linear_59_9547)"/>
<path d="M42.397 15.4609L40.5918 17.567C40.3571 17.8316 40.2633 18.2231 40.3459 18.5913C40.4281 18.9596 40.6748 19.2469 40.9905 19.3433C41.3062 19.4397 41.6417 19.3298 41.8681 19.056L43.6734 16.95C44.0155 16.5369 44.0106 15.8803 43.6626 15.474C43.3143 15.0676 42.7515 15.0623 42.397 15.4609V15.4609Z" fill="url(#paint5_linear_59_9547)"/>
<path d="M42.1216 21.4841C42.1216 21.9824 42.593 22.3865 43.1749 22.3865H45.2809C45.8623 22.3865 46.3337 21.9824 46.3337 21.4841C46.3337 20.9854 45.8623 20.5813 45.2809 20.5813H43.1749C42.593 20.5813 42.1216 20.9854 42.1216 21.4841V21.4841Z" fill="url(#paint6_linear_59_9547)"/>
<path d="M17.7486 19.3777C18.1146 19.3777 18.4449 19.1204 18.585 18.7258C18.7251 18.3313 18.6476 17.8767 18.3885 17.5745L16.5777 15.4619C16.2225 15.062 15.658 15.0673 15.3086 15.4749C14.9593 15.8826 14.9547 16.5412 15.2975 16.9556L17.1082 19.0682C17.2782 19.2665 17.5086 19.3777 17.7486 19.3777Z" fill="url(#paint7_linear_59_9547)"/>
<path d="M12.6362 21.4841C12.6362 21.9824 13.1077 22.3865 13.6895 22.3865H15.7956C16.3769 22.3865 16.8484 21.9824 16.8484 21.4841C16.8484 20.9854 16.3769 20.5813 15.7956 20.5813H13.6895C13.1077 20.5813 12.6362 20.9854 12.6362 21.4841Z" fill="url(#paint8_linear_59_9547)"/>
<defs>
<linearGradient id="paint0_linear_59_9547" x1="35.6478" y1="13.2817" x2="16.7217" y2="10.3587" gradientUnits="userSpaceOnUse">
<stop stop-color="#0B3F37"/>
<stop offset="0.969562" stop-color="#CB8D62"/>
</linearGradient>
<linearGradient id="paint1_linear_59_9547" x1="24.6582" y1="3.55564" x2="32.0325" y2="3.19992" gradientUnits="userSpaceOnUse">
<stop stop-color="#847153"/>
<stop offset="1" stop-color="#395242"/>
</linearGradient>
<linearGradient id="paint2_linear_59_9547" x1="37.6501" y1="37.7491" x2="13.4315" y2="35.2478" gradientUnits="userSpaceOnUse">
<stop stop-color="#0B3F37"/>
<stop offset="0.969562" stop-color="#CB8D62"/>
</linearGradient>
<linearGradient id="paint3_linear_59_9547" x1="23.7685" y1="19.3777" x2="33.0954" y2="19.0768" gradientUnits="userSpaceOnUse">
<stop stop-color="#847153"/>
<stop offset="1" stop-color="#395242"/>
</linearGradient>
<linearGradient id="paint4_linear_59_9547" x1="62.8257" y1="68.6946" x2="-32.7443" y2="48.2417" gradientUnits="userSpaceOnUse">
<stop stop-color="#0B3F37"/>
<stop offset="0.969562" stop-color="#CB8D62"/>
</linearGradient>
<linearGradient id="paint5_linear_59_9547" x1="44.1629" y1="19.8151" x2="38.1384" y2="19.0596" gradientUnits="userSpaceOnUse">
<stop stop-color="#0B3F37"/>
<stop offset="0.969562" stop-color="#CB8D62"/>
</linearGradient>
<linearGradient id="paint6_linear_59_9547" x1="46.6091" y1="22.574" x2="40.2153" y2="20.3911" gradientUnits="userSpaceOnUse">
<stop stop-color="#0B3F37"/>
<stop offset="0.969562" stop-color="#CB8D62"/>
</linearGradient>
<linearGradient id="paint7_linear_59_9547" x1="18.8899" y1="19.8151" x2="12.8655" y2="19.0596" gradientUnits="userSpaceOnUse">
<stop stop-color="#0B3F37"/>
<stop offset="0.969562" stop-color="#CB8D62"/>
</linearGradient>
<linearGradient id="paint8_linear_59_9547" x1="17.1238" y1="22.574" x2="10.7299" y2="20.3911" gradientUnits="userSpaceOnUse">
<stop stop-color="#0B3F37"/>
<stop offset="0.969562" stop-color="#CB8D62"/>
</linearGradient>
</defs>
</svg>
