<svg width="59" height="52" viewBox="0 0 59 52" fill="none" xmlns="http://www.w3.org/2000/svg">
<path d="M28.7092 44.1518C28.8954 44.36 29.1816 44.4817 29.4847 44.4817C29.7878 44.4817 30.0739 44.36 30.2601 44.1518L50.8996 21.0553C51.13 20.7974 51.1715 20.4479 51.0067 20.1545C50.9885 20.1268 50.9681 20.1003 50.9458 20.0749H50.9537L44.0738 10.6652C43.8888 10.4256 43.576 10.2846 43.2443 10.2914V10.2649H15.725V10.2914C15.3943 10.2837 15.0818 10.4229 14.8955 10.661L8.01571 20.0707H8.02357C8.00124 20.096 7.98089 20.1226 7.96264 20.1502C7.79785 20.4437 7.83941 20.7932 8.06977 21.051L28.7092 44.1518ZM31.2754 11.9757H41.4536L36.3645 18.9364L31.2754 11.9757ZM34.5738 19.6746H24.3956L29.4847 12.714L34.5738 19.6746ZM22.6049 18.9364L17.5158 11.9757H27.694L22.6049 18.9364ZM10.8551 21.3855H21.851L27.6733 40.2049L10.8551 21.3855ZM31.3334 40.1647L34.4971 30.1964C34.6261 29.7462 34.3193 29.2886 33.8055 29.1649C33.2917 29.0412 32.7583 29.2965 32.6032 29.7404L29.4984 39.5206L23.8875 21.3855H35.0917L33.8789 25.4479C33.7757 25.7481 33.8693 26.0734 34.1229 26.2958C34.3765 26.5183 34.7496 26.6022 35.0953 26.5145C35.441 26.4269 35.7039 26.1818 35.7807 25.8756L37.1242 21.3855H48.1143L31.3334 40.1647ZM48.3334 19.6746H38.1552L43.2443 12.714L48.3334 19.6746ZM15.725 12.714L20.8141 19.6746H10.6359L15.725 12.714Z" fill="url(#paint0_linear_58_9484)"/>
<path d="M0.982832 26.5185H3.93133C4.47413 26.5185 4.91416 26.1355 4.91416 25.663C4.91416 25.1906 4.47413 24.8076 3.93133 24.8076H0.982832C0.440029 24.8076 0 25.1906 0 25.663C0 26.1355 0.440029 26.5185 0.982832 26.5185Z" fill="url(#paint1_linear_58_9484)"/>
<path d="M55.0385 26.5185H57.987C58.5298 26.5185 58.9698 26.1355 58.9698 25.663C58.9698 25.1906 58.5298 24.8076 57.987 24.8076H55.0385C54.4957 24.8076 54.0557 25.1906 54.0557 25.663C54.0557 26.1355 54.4957 26.5185 55.0385 26.5185Z" fill="url(#paint2_linear_58_9484)"/>
<path d="M30.4681 50.4703V47.904C30.4681 47.4316 30.0281 47.0486 29.4853 47.0486C28.9425 47.0486 28.5024 47.4316 28.5024 47.904V50.4703C28.5024 50.9427 28.9425 51.3257 29.4853 51.3257C30.0281 51.3257 30.4681 50.9427 30.4681 50.4703Z" fill="url(#paint3_linear_58_9484)"/>
<path d="M29.4853 4.27714C30.0281 4.27714 30.4681 3.89416 30.4681 3.42172V0.855429C30.4681 0.382989 30.0281 0 29.4853 0C28.9425 0 28.5024 0.382989 28.5024 0.855429V3.42172C28.5024 3.89416 28.9425 4.27714 29.4853 4.27714Z" fill="url(#paint4_linear_58_9484)"/>
<path d="M10.7207 40.7851L8.63612 42.6003C8.37061 42.813 8.26037 43.1352 8.34894 43.4397C8.43751 43.7441 8.71066 43.9819 9.06047 44.0589C9.41028 44.136 9.78049 44.0401 10.0249 43.809L12.1095 41.9946C12.4819 41.659 12.4766 41.1254 12.0975 40.7955C11.7184 40.4655 11.1054 40.4609 10.7197 40.7851H10.7207Z" fill="url(#paint5_linear_58_9484)"/>
<path d="M47.5544 10.7912C47.8151 10.7912 48.065 10.701 48.2493 10.5406L50.3339 8.72535C50.5994 8.51265 50.7096 8.19043 50.621 7.88596C50.5325 7.5815 50.2593 7.34376 49.9095 7.26667C49.5597 7.18958 49.1895 7.28553 48.9451 7.51662L46.8605 9.33099C46.5795 9.57564 46.4955 9.94351 46.6476 10.2631C46.7997 10.5827 47.158 10.7911 47.5554 10.7912H47.5544Z" fill="url(#paint6_linear_58_9484)"/>
<path d="M49.6388 44.0596C50.0363 44.0596 50.3946 43.8511 50.5467 43.5315C50.6987 43.2119 50.6147 42.8441 50.3337 42.5994L48.2491 40.7851C47.8635 40.4609 47.2505 40.4655 46.8714 40.7955C46.4922 41.1254 46.4869 41.659 46.8594 41.9946L48.945 43.809C49.129 43.9692 49.3785 44.0594 49.6388 44.0596Z" fill="url(#paint7_linear_58_9484)"/>
<path d="M10.7207 10.5406C11.1063 10.8647 11.7193 10.8601 12.0985 10.5301C12.4776 10.2002 12.4829 9.66664 12.1104 9.33099L10.0249 7.51662C9.78049 7.28553 9.41028 7.18958 9.06047 7.26667C8.71066 7.34376 8.43751 7.5815 8.34894 7.88596C8.26037 8.19043 8.37061 8.51265 8.63612 8.72534L10.7207 10.5406Z" fill="url(#paint8_linear_58_9484)"/>
<defs>
<linearGradient id="paint0_linear_58_9484" x1="53.9341" y1="48.035" x2="-16.9358" y2="34.9303" gradientUnits="userSpaceOnUse">
<stop stop-color="#0B3F37"/>
<stop offset="0.969562" stop-color="#CB8D62"/>
</linearGradient>
<linearGradient id="paint1_linear_58_9484" x1="5.23547" y1="26.6961" x2="-1.84321" y2="23.7212" gradientUnits="userSpaceOnUse">
<stop stop-color="#0B3F37"/>
<stop offset="0.969562" stop-color="#CB8D62"/>
</linearGradient>
<linearGradient id="paint2_linear_58_9484" x1="59.2911" y1="26.6961" x2="52.2125" y2="23.7212" gradientUnits="userSpaceOnUse">
<stop stop-color="#0B3F37"/>
<stop offset="0.969562" stop-color="#CB8D62"/>
</linearGradient>
<linearGradient id="paint3_linear_58_9484" x1="30.5966" y1="51.7699" x2="27.2801" y2="51.5469" gradientUnits="userSpaceOnUse">
<stop stop-color="#0B3F37"/>
<stop offset="0.969562" stop-color="#CB8D62"/>
</linearGradient>
<linearGradient id="paint4_linear_58_9484" x1="30.5966" y1="4.72131" x2="27.2801" y2="4.4983" gradientUnits="userSpaceOnUse">
<stop stop-color="#0B3F37"/>
<stop offset="0.969562" stop-color="#CB8D62"/>
</linearGradient>
<linearGradient id="paint5_linear_58_9484" x1="12.6512" y1="44.4528" x2="5.94833" y2="43.3263" gradientUnits="userSpaceOnUse">
<stop stop-color="#0B3F37"/>
<stop offset="0.969562" stop-color="#CB8D62"/>
</linearGradient>
<linearGradient id="paint6_linear_58_9484" x1="50.9178" y1="11.1599" x2="44.1953" y2="10.0302" gradientUnits="userSpaceOnUse">
<stop stop-color="#0B3F37"/>
<stop offset="0.969562" stop-color="#CB8D62"/>
</linearGradient>
<linearGradient id="paint7_linear_58_9484" x1="50.8855" y1="44.4246" x2="44.2297" y2="43.3058" gradientUnits="userSpaceOnUse">
<stop stop-color="#0B3F37"/>
<stop offset="0.969562" stop-color="#CB8D62"/>
</linearGradient>
<linearGradient id="paint8_linear_58_9484" x1="12.6523" y1="11.1483" x2="5.94785" y2="10.0213" gradientUnits="userSpaceOnUse">
<stop stop-color="#0B3F37"/>
<stop offset="0.969562" stop-color="#CB8D62"/>
</linearGradient>
</defs>
</svg>
